<?xml version="1.0" encoding="utf-8"?>
<!-- Generator: Adobe Illustrator 26.5.0, SVG Export Plug-In . SVG Version: 6.00 Build 0)  -->
<svg version="1.1" id="Layer_1" xmlns="http://www.w3.org/2000/svg" xmlns:xlink="http://www.w3.org/1999/xlink" x="0px" y="0px"
	 viewBox="0 0 146.8 39.6" style="enable-background:new 0 0 146.8 39.6;" xml:space="preserve">
<style type="text/css">
	.st0{fill:#1FBF88;}
</style>
<g transform="translate(39.337 9.397)">
	<path class="st0" d="M4.9,0.2c1.2,0,2.3,0.2,3.4,0.7C9.2,1.3,9.9,2,10.5,2.8c0.5,0.9,0.8,2,0.8,3.1c0,0.7-0.1,1.4-0.3,2.1
		c-0.2,0.7-0.6,1.3-1,1.9c-0.5,0.6-1.2,1.1-1.9,1.4c-0.9,0.4-1.9,0.5-2.8,0.5H2.4v6.7H0V0.2H4.9z M5.1,9.4c0.6,0,1.2-0.1,1.8-0.3
		C7.4,8.8,7.7,8.5,8,8.1C8.3,7.8,8.5,7.4,8.6,7c0.1-0.4,0.2-0.7,0.2-1.1c0-0.4-0.1-0.8-0.2-1.1C8.5,4.4,8.3,4,8,3.7
		C7.7,3.3,7.3,3,6.9,2.9C6.4,2.6,5.8,2.5,5.3,2.5H2.4v6.8L5.1,9.4z"/>
	<path class="st0" d="M19.8,0.2c0.9,0,1.7,0.1,2.6,0.4c0.7,0.2,1.4,0.6,2,1.1c0.6,0.5,1,1.1,1.4,1.8c0.3,0.8,0.5,1.6,0.5,2.4
		c0,0.7-0.1,1.4-0.3,2.1c-0.2,0.7-0.6,1.3-1,1.9c-0.5,0.6-1.2,1.1-1.9,1.4c-0.9,0.4-1.9,0.5-2.9,0.5h-2.7v6.7H15V0.2H19.8z
		 M20.1,9.4c0.6,0,1.2-0.1,1.8-0.3c0.4-0.2,0.8-0.5,1.1-0.8c0.3-0.3,0.5-0.7,0.6-1.1c0.1-0.4,0.2-0.8,0.2-1.1c0-0.4-0.1-0.8-0.2-1.1
		C23.5,4.4,23.3,4,23,3.7c-0.3-0.4-0.7-0.6-1.1-0.8c-0.5-0.2-1.1-0.3-1.6-0.3h-2.8v6.8L20.1,9.4z M23.1,10.8l4.8,7.7H25l-4.9-7.6
		L23.1,10.8z"/>
	<path class="st0" d="M30.1,9.3c0-1.2,0.2-2.4,0.7-3.6c1-2.2,2.7-4,5-5c2.3-1,4.9-1,7.2,0c2.3,1,4,2.8,5,5c1,2.3,1,4.9,0,7.2
		c-1,2.2-2.8,4-5,5c-1.1,0.5-2.4,0.7-3.6,0.7c-5.1,0.1-9.3-4-9.3-9.1C30.1,9.5,30.1,9.4,30.1,9.3L30.1,9.3z M32.6,9.3
		c0,0.9,0.2,1.9,0.5,2.7c0.3,0.8,0.8,1.6,1.5,2.2c0.6,0.6,1.4,1.1,2.2,1.5c1.7,0.7,3.6,0.7,5.3,0c0.8-0.4,1.5-0.9,2.1-1.5
		c0.6-0.6,1.1-1.4,1.5-2.2c0.4-0.9,0.5-1.8,0.5-2.7c0-0.9-0.2-1.9-0.5-2.7c-0.3-0.8-0.8-1.6-1.5-2.2c-1.9-2-4.9-2.6-7.5-1.5
		c-1.6,0.7-2.9,2.1-3.6,3.7C32.8,7.5,32.6,8.4,32.6,9.3L32.6,9.3z"/>
	<path class="st0" d="M52.8,18.4V0.2h5c1.6,0,3.1,0.2,4.6,0.8c1.2,0.5,2.2,1.2,3.1,2.2c0.8,0.9,1.3,1.9,1.7,3
		c0.3,1.1,0.5,2.2,0.5,3.3c0,1.3-0.2,2.5-0.7,3.7c-0.5,1.1-1.1,2-2,2.8c-0.8,0.8-1.8,1.4-2.9,1.8c-1.1,0.4-2.3,0.6-3.4,0.6
		L52.8,18.4z M55.3,16.1h3c0.9,0,1.9-0.1,2.8-0.5c0.8-0.3,1.6-0.7,2.2-1.3c0.6-0.6,1.1-1.3,1.5-2.1c0.7-1.9,0.7-3.9,0-5.8
		c-0.3-0.8-0.9-1.5-1.5-2.1c-0.6-0.6-1.4-1-2.2-1.3c-0.8-0.3-1.7-0.4-2.5-0.4h-3.2L55.3,16.1z"/>
	<path class="st0" d="M71.8,0.2h2.4v18.2h-2.4V0.2z"/>
	<path class="st0" d="M82,7.5l-0.1,0.9L82.2,8l7.5-7.8h3.2L85.3,8l8,10.4h-3.1l-6.7-8.9L82,11.1v7.4h-2.5V0.2H82L82,7.5z"/>
	<path class="st0" d="M95.3,0.2h12.1v2.3h-4.9v15.9h-2.4V2.5h-4.8V0.2z"/>
</g>
<path class="st0" d="M19.8,23.1l-9.6,9.7c-0.4,0.4-0.4,1.1,0.1,1.4c0.4,0.4,1,0.4,1.4,0l7.1-7.2v10.6H6.2c-2.3,0-4.1-1.8-4.1-4.1
	V20.8h10.6l-7.2,7.1C5,28.3,5,29,5.4,29.4c0.4,0.4,1,0.4,1.4,0.1c0,0,0,0,0,0l9.7-9.6l-9.7-9.6c-0.4-0.4-1-0.4-1.4,0s-0.4,1,0,1.4
	l7.2,7.1H2V6.2C2,3.9,3.9,2,6.2,2h12.6v10.6l-7.1-7.2c-0.4-0.4-1-0.4-1.4,0s-0.4,1,0,1.4l9.6,9.7l9.6-9.7c0.4-0.4,0.4-1,0-1.4
	s-1-0.4-1.4,0l-7.1,7.2V0H6.2C2.8,0,0,2.8,0,6.2v27.3c0,3.4,2.8,6.2,6.2,6.2h14.7V27l7.1,7.2c0.4,0.4,1,0.4,1.4,0s0.4-1,0-1.4
	L19.8,23.1z"/>
<path class="st0" d="M39.4,18.8H27l7.2-7.1c0.4-0.4,0.4-1,0-1.4s-1-0.4-1.4,0l-9.7,9.6l9.7,9.6c0.4,0.4,1,0.4,1.4,0s0.4-1,0-1.4l0,0
	L27,20.8h12.4V18.8z"/>
</svg>
