<svg xmlns="http://www.w3.org/2000/svg" width="146.761" height="39.633" viewBox="0 0 146.761 39.633"><g transform="translate(39.337 9.397)"><path d="M882.2,832.679a7.916,7.916,0,0,1,3.405.668,4.989,4.989,0,0,1,2.182,1.93,5.756,5.756,0,0,1,.769,3.052,7.1,7.1,0,0,1-.328,2.131,5.375,5.375,0,0,1-1.046,1.892,5.193,5.193,0,0,1-1.879,1.362,6.921,6.921,0,0,1-2.825.517h-2.7v6.684h-2.447V832.679Zm.252,9.156a4.123,4.123,0,0,0,1.791-.341,2.889,2.889,0,0,0,1.11-.9,3.818,3.818,0,0,0,.58-1.135,3.747,3.747,0,0,0,.177-1.084,4.031,4.031,0,0,0-.177-1.148,2.985,2.985,0,0,0-.592-1.084,3.165,3.165,0,0,0-1.085-.807,3.86,3.86,0,0,0-1.652-.315h-2.825v6.81Z" transform="translate(-877.331 -832.477)"/><path d="M933.847,832.679a8.57,8.57,0,0,1,2.56.366,5.949,5.949,0,0,1,2.043,1.084,5,5,0,0,1,1.362,1.778,5.688,5.688,0,0,1,.492,2.421,7.223,7.223,0,0,1-.315,2.119,5.226,5.226,0,0,1-1.034,1.879,5.161,5.161,0,0,1-1.892,1.362,7.225,7.225,0,0,1-2.913.517h-2.7v6.71H929V832.679Zm.252,9.156a4.35,4.35,0,0,0,1.8-.328,2.93,2.93,0,0,0,1.122-.845,3.367,3.367,0,0,0,.58-1.1,3.9,3.9,0,0,0,.177-1.135,3.655,3.655,0,0,0-.189-1.135,3.456,3.456,0,0,0-.605-1.1,3.152,3.152,0,0,0-1.084-.845,3.678,3.678,0,0,0-1.627-.328H931.45v6.81Zm3,1.412,4.767,7.668h-2.825l-4.868-7.592Z" transform="translate(-913.997 -832.477)"/><path d="M980.938,841.316a9.053,9.053,0,0,1,.719-3.582,9.54,9.54,0,0,1,4.969-5.02,9.225,9.225,0,0,1,7.2,0,9.631,9.631,0,0,1,5.019,5.02,9.257,9.257,0,0,1,0,7.214,9.412,9.412,0,0,1-4.994,4.956,9.115,9.115,0,0,1-3.607.719,9.205,9.205,0,0,1-9.307-9.307Zm2.522,0a7.013,7.013,0,0,0,.517,2.711,6.832,6.832,0,0,0,1.463,2.207,7.005,7.005,0,0,0,2.169,1.5,6.8,6.8,0,0,0,5.322,0,6.817,6.817,0,0,0,2.144-1.488,7.037,7.037,0,0,0,1.45-2.207,6.891,6.891,0,0,0,.53-2.7,6.961,6.961,0,0,0-.53-2.724,7.36,7.36,0,0,0-1.45-2.232,6.729,6.729,0,0,0-7.517-1.5,6.77,6.77,0,0,0-3.594,3.746A7.222,7.222,0,0,0,983.46,841.316Z" transform="translate(-950.847 -831.983)"/><path d="M1059.274,850.915V832.679h4.969a11.6,11.6,0,0,1,4.616.82,8.27,8.27,0,0,1,3.065,2.195,8.768,8.768,0,0,1,1.7,3.014,10.689,10.689,0,0,1,.529,3.3,9.149,9.149,0,0,1-.719,3.708,8.342,8.342,0,0,1-1.968,2.8,8.739,8.739,0,0,1-2.875,1.778,9.605,9.605,0,0,1-3.443.618Zm2.447-2.346h2.951a8.173,8.173,0,0,0,2.762-.454,6.533,6.533,0,0,0,2.219-1.312,5.919,5.919,0,0,0,1.476-2.106,8.032,8.032,0,0,0-.025-5.8,6.075,6.075,0,0,0-1.513-2.131,6.646,6.646,0,0,0-2.169-1.3,7.317,7.317,0,0,0-2.522-.441h-3.178Z" transform="translate(-1006.432 -832.477)"/><path d="M1124.669,832.679h2.446v18.236h-2.446Z" transform="translate(-1052.834 -832.477)"/><path d="M1153.628,840.019l-.05.908.3-.454,7.466-7.794h3.153l-7.542,7.819,7.97,10.417h-3.1l-6.659-8.854-1.539,1.488v7.365h-2.472V832.679h2.472Z" transform="translate(-1071.629 -832.477)"/><path d="M1205.435,832.679h12.132v2.346h-4.893v15.891h-2.447V835.025h-4.792Z" transform="translate(-1110.144 -832.477)"/></g><path d="M761.7,822.731l-9.567,9.666a1.017,1.017,0,0,0,1.445,1.43l7.105-7.179v10.581H748.043a4.129,4.129,0,0,1-4.124-4.124V820.462H754.5l-7.179,7.105a1.017,1.017,0,1,0,1.43,1.445l9.665-9.567-9.665-9.566a1.016,1.016,0,1,0-1.43,1.445l7.179,7.105H743.919V805.786a4.129,4.129,0,0,1,4.124-4.124h12.643v10.581l-7.105-7.178a1.016,1.016,0,1,0-1.445,1.43l9.567,9.666,9.566-9.666a1.016,1.016,0,1,0-1.445-1.43l-7.105,7.179V799.629H748.043a6.164,6.164,0,0,0-6.157,6.157v27.319a6.164,6.164,0,0,0,6.157,6.157h14.676V826.648l7.105,7.179a1.016,1.016,0,0,0,1.445-1.43Z" transform="translate(-741.886 -799.629)"/><path d="M837.749,842.754h-12.4l7.178-7.105a1.016,1.016,0,1,0-1.43-1.445l-9.666,9.567,9.666,9.566a1.016,1.016,0,1,0,1.43-1.445l-7.178-7.105h12.4Z" transform="translate(-798.329 -823.954)"/></svg>